<svg width="160" height="50" viewBox="0 0 160 50" fill="none" xmlns="http://www.w3.org/2000/svg">
<path d="M61.5412 15.8578V36.9082L64.25 36.9289V26.8999H70.7843V24.2531H64.25V18.5046H72.7488V15.8578H61.5412ZM77.6288 20.1382C78.6007 20.1382 79.4072 19.3524 79.4072 18.3598C79.4072 17.3673 78.6214 16.5815 77.6288 16.5815C76.657 16.5815 75.8505 17.3673 75.8505 18.3598C75.8505 19.3524 76.6363 20.1382 77.6288 20.1382ZM76.2434 22.785V36.9289H78.9522V22.785H76.2434ZM89.0018 22.3714C85.4038 22.3714 82.9018 25.4111 82.9018 29.0298C82.9018 32.6485 85.4038 35.6882 89.0018 35.6882C90.6561 35.6882 92.0002 35.0678 92.9927 34.0132V35.8949C93.0134 38.2316 91.1524 40.1753 88.795 40.196C88.7744 40.196 88.7744 40.196 88.7537 40.196C87.8852 40.196 87.0374 39.8652 86.355 39.3896L84.9903 41.7469C88.2161 43.8354 92.5171 42.9049 94.5849 39.6791C95.3087 38.5418 95.7016 37.239 95.7016 35.8949V22.8057H92.9927V24.067C92.0002 23.0124 90.6561 22.3714 89.0018 22.3714ZM85.6106 29.0298C85.6106 26.7759 87.3269 25.0182 89.312 25.0182C91.2971 25.0182 92.9927 26.7966 92.9927 29.0298C92.9927 31.2837 91.2764 33.0207 89.312 33.0207C87.3269 33.0207 85.6106 31.263 85.6106 29.0298ZM105.462 25.0182C103.849 25.0389 102.546 26.3623 102.567 27.9752V36.9082H99.8579V22.7643H102.567V24.067C103.394 22.9711 104.676 22.3507 106.061 22.3714C107.964 22.3714 109.432 23.3019 110.259 24.7494C111.21 23.2813 112.823 22.3921 114.56 22.3714C117.641 22.3714 119.564 24.8528 119.564 27.9338V36.9082H116.876V27.9752C116.876 26.3623 115.594 25.0389 113.981 25.0182C112.368 25.0389 111.065 26.3623 111.086 27.9752V36.9082H108.357V27.9752C108.357 26.3623 107.075 25.0389 105.462 25.0182ZM133.998 24.3772C132.757 23.0745 131.02 22.3507 129.221 22.3714C125.189 22.3714 122.335 25.7833 122.335 29.8362C122.335 33.9098 125.189 37.3011 129.221 37.3011C131.02 37.3011 132.736 36.5773 133.998 35.2953V36.9082H136.706V22.7643H133.998V24.3772ZM125.044 29.8362C125.044 27.1481 127.112 24.9975 129.531 24.9975C131.93 25.0182 133.998 27.1481 133.998 29.8362C133.998 32.5244 131.93 34.6543 129.51 34.6543C127.132 34.6749 125.044 32.5451 125.044 29.8362Z" fill="white"/>
<path d="M36.8102 28.9056C36.8102 25.0594 39.9326 21.937 43.7787 21.937C47.6249 21.937 50.7473 25.0594 50.7473 28.9056C50.7473 32.7517 47.6249 35.8741 43.7787 35.8741C39.9326 35.8741 36.8102 32.7517 36.8102 28.9056Z" fill="white"/>
<path d="M22.8937 42.8221C22.8937 38.9759 26.0161 35.8535 29.8622 35.8535H36.8308V42.8221C36.8308 46.6682 33.7084 49.7906 29.8622 49.7906C26.0161 49.7906 22.8937 46.6682 22.8937 42.8221Z" fill="white"/>
<path d="M36.8102 8.02068V21.9371H43.7787C47.6249 21.9371 50.7473 18.8147 50.7473 14.9686C50.7473 11.1224 47.6249 8 43.7787 8H36.8102V8.02068Z" fill="white"/>
<path d="M22.8937 14.9891C22.8937 18.8353 26.0161 21.9577 29.8622 21.9577H36.8308V8.04124H29.8622C26.0161 8.02056 22.8937 11.143 22.8937 14.9891Z" fill="white"/>
<path d="M22.8937 28.9056C22.8937 32.7518 26.0161 35.8742 29.8622 35.8742H36.8308V21.9577H29.8622C26.0161 21.9371 22.8937 25.0595 22.8937 28.9056Z" fill="white"/>
</svg>
